HIERARCHY
ROOT Hips
{
	OFFSET 56.877701 -32.693596 43.373703
	CHANNELS 6 Xposition Yposition Zposition Zrotation Xrotation Yrotation
	JOINT Chest
	{
		OFFSET -0.779999 1.005800 5.403099
		CHANNELS 6 Xposition Yposition Zposition Zrotation Xrotation Yrotation
		JOINT Chest2
		{
			OFFSET 0.000000 0.000000 4.236801
			CHANNELS 6 Xposition Yposition Zposition Zrotation Xrotation Yrotation
			JOINT Neck
			{
				OFFSET 0.000000 0.000000 9.874401
				CHANNELS 6 Xposition Yposition Zposition Zrotation Xrotation Yrotation
				JOINT Head
				{
					OFFSET 0.000000 0.000002 2.173893
					CHANNELS 6 Xposition Yposition Zposition Zrotation Xrotation Yrotation
					End Site
					{
						OFFSET 0.000000 0.000000 6.508102
					}
				}
			}
			JOINT LeftCollar
			{
				OFFSET 2.681599 -0.377600 5.432499
				CHANNELS 6 Xposition Yposition Zposition Zrotation Xrotation Yrotation
				JOINT LeftShoulder
				{
					OFFSET 5.161499 0.000000 0.000000
					CHANNELS 6 Xposition Yposition Zposition Zrotation Xrotation Yrotation
					JOINT LeftElbow
					{
						OFFSET 0.000000 0.000000 -10.869099
						CHANNELS 6 Xposition Yposition Zposition Zrotation Xrotation Yrotation
						JOINT LeftWrist
						{
							OFFSET 0.000000 0.000000 -13.344799
							CHANNELS 6 Xposition Yposition Zposition Zrotation Xrotation Yrotation
							End Site
							{
								OFFSET 0.000000 0.000000 -2.173901
							}
						}
					}
				}
			}
			JOINT RightCollar
			{
				OFFSET -2.381901 -1.419600 6.136600
				CHANNELS 6 Xposition Yposition Zposition Zrotation Xrotation Yrotation
				JOINT RightShoulder
				{
					OFFSET -4.550499 0.000000 0.000000
					CHANNELS 6 Xposition Yposition Zposition Zrotation Xrotation Yrotation
					JOINT RightElbow
					{
						OFFSET 0.000000 0.000000 -11.106499
						CHANNELS 6 Xposition Yposition Zposition Zrotation Xrotation Yrotation
						JOINT RightWrist
						{
							OFFSET 0.000000 0.000000 -12.874298
							CHANNELS 6 Xposition Yposition Zposition Zrotation Xrotation Yrotation
							End Site
							{
								OFFSET 0.000000 0.000000 -2.173901
							}
						}
					}
				}
			}
		}
	}
	JOINT LeftHip
	{
		OFFSET 2.431900 0.469601 -2.489399
		CHANNELS 6 Xposition Yposition Zposition Zrotation Xrotation Yrotation
		JOINT LeftKnee
		{
			OFFSET 0.000000 -0.000004 -18.200201
			CHANNELS 6 Xposition Yposition Zposition Zrotation Xrotation Yrotation
			JOINT LeftAnkle
			{
				OFFSET 0.000000 0.000000 -16.279900
				CHANNELS 6 Xposition Yposition Zposition Zrotation Xrotation Yrotation
				End Site
				{
					OFFSET 0.000000 -8.394100 0.000000
				}
			}
		}
	}
	JOINT RightHip
	{
		OFFSET -1.987999 -0.073502 -2.713001
		CHANNELS 6 Xposition Yposition Zposition Zrotation Xrotation Yrotation
		JOINT RightKnee
		{
			OFFSET 0.000000 -0.000004 -19.547802
			CHANNELS 6 Xposition Yposition Zposition Zrotation Xrotation Yrotation
			JOINT RightAnkle
			{
				OFFSET 0.000000 0.000000 -14.881199
				CHANNELS 6 Xposition Yposition Zposition Zrotation Xrotation Yrotation
				End Site
				{
					OFFSET 0.000000 -7.922699 0.000000
				}
			}
		}
	}
}
MOTION
Frames: 4
Frame Time: 0.041667
106.321411 -33.951393 39.897205 4362.239649 23.193185 2.071154 -0.779997 1.005791 5.403090 0.101658 -17.950745 -18.060622 0.000004 -0.000002 4.236807 2.533322 -3.957059 -0.624169 0.000023 -0.000013 9.874400 41.153505 -44.381763 8.373244 -0.000007 0.000000 2.173901 6.398238 -0.880070 6.345685 2.681618 -0.377619 5.432496 -18.176870 18.446748 -13.790692 5.161504 -0.000003 -0.000010 162.321276 -191.888263 157.111618 0.000007 0.000006 -10.869101 17.014418 -18.393631 30.528224 -0.000004 0.000001 -13.344801 -19.638466 5.539441 -81.717606 -2.381880 -1.419616 6.136595 -14.936292 -7.062417 -11.259189 -4.550495 -0.000001 0.000007 -1199.438920 -479.227164 -384.721306 -0.000004 -0.000003 -11.106508 676.658481 -11.213654 713.834818 0.000000 0.000002 -12.874294 -372.969009 -7.432886 32.342001 2.431898 0.469600 -2.489403 -333.903469 -35.684344 21.037746 -0.000003 0.000001 -18.200203 300.119004 60.460500 54.350001 -0.000010 0.000003 -16.279900 33.466049 18.954157 8.513716 -1.987999 -0.073500 -2.713003 -66.674080 -40.549617 -47.555144 0.000010 -0.000002 -19.547802 -1926.197275 113.748099 153.127213 0.000007 0.000001 -14.881199 2148.531189 13.402963 -373.454690
106.227005 -33.823196 39.811600 4365.610812 24.177949 2.210290 -0.780006 1.005805 5.403090 1.021204 -18.489575 -17.994378 0.000003 0.000013 4.236796 2.449438 -4.042765 -0.623776 0.000014 0.000000 9.874405 41.153785 -44.627896 9.023681 0.000002 0.000000 2.173894 5.097901 -0.650454 5.285773 2.681600 -0.377607 5.432501 -18.557117 17.653596 -13.365852 5.161496 0.000003 -0.000007 162.111972 -192.610337 157.309871 0.000014 0.000004 -10.869094 17.310206 -18.516532 30.772130 -0.000002 0.000001 -13.344807 -20.732676 5.507270 -82.073602 -2.381896 -1.419605 6.136590 -15.211482 -7.180906 -11.093869 -4.550502 0.000002 0.000004 -1199.257182 -478.849263 -385.224991 0.000005 -0.000009 -11.106503 675.433582 -11.022481 713.833671 -0.000005 -0.000002 -12.874291 -369.930887 -6.574724 32.929093 2.431899 0.469603 -2.489397 -333.066826 -36.576452 21.358324 -0.000000 -0.000010 -18.200203 299.192065 61.052677 55.205147 0.000007 0.000001 -16.279888 34.716947 18.152816 10.918247 -1.987998 -0.073492 -2.713013 -71.043359 -39.665613 -50.495349 -0.000005 -0.000005 -19.547794 -1959.903002 113.012727 180.916903 0.000003 0.000008 -14.881196 2149.876244 19.985791 -353.309539
106.107895 -33.712498 39.748901 4369.176499 25.046640 2.327902 -0.779994 1.005812 5.403082 1.974086 -18.970883 -17.896074 -0.000004 -0.000003 4.236800 2.353254 -4.119291 -0.625902 -0.000004 0.000008 9.874397 42.116989 -44.593458 9.903570 0.000000 -0.000004 2.173892 4.044187 -0.918683 3.884753 2.681602 -0.377601 5.432497 -18.552971 18.119942 -12.769921 5.161505 -0.000012 -0.000003 162.185068 -192.209023 156.783891 0.000009 0.000002 -10.869093 17.545557 -18.623033 31.044586 0.000006 -0.000003 -13.344795 -21.837691 5.206234 -82.549004 -2.381897 -1.419603 6.136596 -15.270513 -7.338082 -11.475500 -4.550502 -0.000005 0.000011 -1199.774856 -479.192084 -386.002130 0.000006 0.000004 -11.106491 674.548116 -10.855455 713.872630 -0.000011 -0.000005 -12.874290 -368.655936 -5.173669 33.113976 2.431899 0.469607 -2.489412 -332.348016 -37.343335 21.418741 -0.000001 0.000005 -18.200203 298.383835 61.457762 55.868533 0.000007 0.000003 -16.279905 35.878297 17.564818 12.584987 -1.988000 -0.073487 -2.713005 -75.251746 -38.405095 -53.130932 -0.000008 -0.000004 -19.547802 -1975.283932 114.886855 193.984653 -0.000000 0.000001 -14.881201 2149.018591 22.161274 -342.863612
105.964203 -33.619392 39.707699 4372.938895 25.937305 2.148046 -0.779994 1.005810 5.403103 3.056942 -19.523232 -17.475515 0.000011 -0.000015 4.236803 2.232402 -4.193146 -0.624994 -0.000003 -0.000002 9.874397 44.313618 -44.224826 11.067938 0.000006 0.000004 2.173902 3.428237 -1.902273 2.140695 2.681598 -0.377602 5.432496 -18.468365 18.059297 -12.897736 5.161508 -0.000017 0.000000 162.028999 -192.104903 157.058561 0.000008 0.000008 -10.869101 17.748352 -18.694953 31.337652 -0.000007 0.000000 -13.344798 -22.921090 5.520044 -82.609041 -2.381900 -1.419612 6.136592 -15.379445 -7.504406 -11.238833 -4.550512 0.000004 0.000021 -1202.129031 -479.462122 -388.558506 -0.000003 -0.000008 -11.106514 673.834444 -10.720377 713.973170 -0.000011 -0.000006 -12.874308 -370.155272 -4.097588 31.406043 2.431904 0.469605 -2.489388 -331.027959 -37.953872 21.891569 -0.000005 -0.000011 -18.200197 297.151942 61.731789 56.549687 -0.000011 0.000000 -16.279909 36.991290 17.250242 13.400437 -1.987997 -0.073491 -2.712997 -79.331254 -37.071443 -55.538235 -0.000005 -0.000012 -19.547798 -1981.125110 116.044477 199.772323 -0.000012 0.000005 -14.881196 2147.822598 22.802288 -338.276511
